<!DOCTYPE svg PUBLIC "-//W3C//DTD SVG 1.1//EN" "http://www.w3.org/Graphics/SVG/1.1/DTD/svg11.dtd">
<!-- Uploaded to: SVG Repo, www.svgrepo.com, Transformed by: SVG Repo Mixer Tools -->
<svg fill="#5EA7CE" width="256px" height="256px" viewBox="0 0 24.00 24.00" xmlns="http://www.w3.org/2000/svg" stroke="#5EA7CE" stroke-width="0.00024000000000000003">
<g id="SVGRepo_bgCarrier" stroke-width="0"/>
<g id="SVGRepo_tracerCarrier" stroke-linecap="round" stroke-linejoin="round" stroke="#CCCCCC" stroke-width="0.144"/>
<g id="SVGRepo_iconCarrier">
<path d="M12,1A11,11,0,1,0,23,12,11.013,11.013,0,0,0,12,1Zm0,20a9,9,0,1,1,9-9A9.01,9.01,0,0,1,12,21ZM8,11V9a1,1,0,0,1,2,0v2a1,1,0,0,1-2,0Zm8-2v2a1,1,0,0,1-2,0V9a1,1,0,0,1,2,0ZM8,14h8a4,4,0,0,1-8,0Z"/>
</g>
</svg>