<svg xmlns="http://www.w3.org/2000/svg" viewBox="0 0 79.3 92.6"><defs><style>.cls-1{fill:#f5dcab;}.cls-2{fill:#fffcfc;}.cls-3{fill:none;stroke:#fff;stroke-miterlimit:10;}</style></defs><g id="Calque_2" data-name="Calque 2"><g id="Calque_1-2" data-name="Calque 1"><path class="cls-1" d="M39.79.06C49.91.06,59.84,1.22,69,6c6.82,3.56,11.1,8.18,10.21,17.09C77.55,39.42,75.37,55.45,67,69.94c-5.49,9.49-12.89,17-23,21.61a10.06,10.06,0,0,1-9,0c-10.3-4.66-17.85-12.23-23.29-22C2.57,53.14.25,35.14,0,16.69c0-2.46,1.49-3.93,3-5.41C11.61,2.92,22.61,1.13,33.86.09,35.82-.09,37.81.06,39.79.06Z"/><path class="cls-2" d="M26.17,69.74a1.08,1.08,0,0,0,1.08,1.09h24.8a1.09,1.09,0,0,0,0-2.17H27.25a1.08,1.08,0,0,0-1.08,1.08Z"/><path class="cls-3" d="M26.17,69.74a1.08,1.08,0,0,0,1.08,1.09h24.8a1.09,1.09,0,0,0,0-2.17H27.25a1.08,1.08,0,0,0-1.08,1.08Z"/><ellipse class="cls-2" cx="26.17" cy="36.53" rx="7.99" ry="4.93"/><ellipse class="cls-2" cx="53.13" cy="36.53" rx="7.99" ry="4.93"/></g></g></svg>