<svg xmlns="http://www.w3.org/2000/svg" viewBox="0 0 79.3 92.6"><defs><style>.cls-1{fill:#db3d59;}.cls-2{fill:#fffcfc;}</style></defs><g id="Calque_2" data-name="Calque 2"><g id="Calque_1-2" data-name="Calque 1"><path class="cls-1" d="M39.79.06C49.91.06,59.84,1.22,69,6c6.82,3.56,11.1,8.18,10.21,17.09C77.55,39.42,75.37,55.45,67,69.94c-5.49,9.49-12.89,17-23,21.61a10.06,10.06,0,0,1-9,0c-10.3-4.66-17.85-12.23-23.29-22C2.57,53.14.25,35.14,0,16.68c0-2.45,1.49-3.92,3-5.4C11.61,2.92,22.61,1.13,33.86.09,35.82-.09,37.81.06,39.79.06Z"/><path class="cls-2" d="M39.51,57.3c6.09.19,11.56,1.64,16.14,5.58,1,.83,2.26,1.81,1.24,3.29-1.26,1.8-2.47.6-3.73-.27-9.16-6.38-18.33-6.33-27.42.16-1.14.81-2.22,1.7-3.39.27s0-2.45.94-3.31C28,58.92,33.62,57.47,39.51,57.3Z"/><path class="cls-2" d="M16.06,40.11c5.11-4.48,10.88-6.75,17.49-8.32-.33,4.86-1.63,8.94-5.74,11S20,42.31,16.06,40.11Z"/><path class="cls-2" d="M45.49,31.77C52.15,33.54,58,35.57,63,40.05c-3.7,2.32-7.33,4.81-11.51,2.86S46,36.77,45.49,31.77Z"/></g></g></svg>